<svg width="515" height="136" viewBox="0 0 515 136" fill="none" xmlns="http://www.w3.org/2000/svg">
<path d="M144 80.3119V94.1575H153.668V80.9167C153.668 79.6315 154.172 78.3895 155.085 77.4823C155.988 76.5751 157.223 76.0567 158.501 76.0567H168.416C173.035 76.0567 177.471 74.2099 180.737 70.9159C184.002 67.6327 185.839 63.1723 185.839 58.5284C185.839 53.8844 184.002 49.424 180.737 46.13C177.471 42.8468 173.035 41 168.405 41H144V58.3016H153.668V50.1476H167.761C169.952 50.1476 172.047 51.0224 173.593 52.5776C175.14 54.1328 176.01 56.2388 176.01 58.442C176.01 60.6452 175.14 62.7511 173.593 64.3063C172.047 65.8615 169.952 66.7363 167.761 66.7363H157.524C155.751 66.7363 153.99 67.0819 152.357 67.7731C150.714 68.4535 149.231 69.4579 147.974 70.7215C146.718 71.9851 145.729 73.4863 145.042 75.1279C144.354 76.7587 144 78.5299 144 80.3119Z" fill="#1B1340"/>
<path d="M187.332 94.1574V73.0651C187.332 64.4575 192.327 57.6103 202.328 57.6103C203.928 57.5887 205.529 57.7615 207.097 58.1395V66.8119C205.958 66.7363 204.981 66.7363 204.519 66.7363C199.223 66.7363 196.946 69.1771 196.946 74.1235V94.1574H187.332Z" fill="#1B1340"/>
<path d="M209.975 76.2728C209.975 65.6889 217.924 57.6213 228.988 57.6213C240.052 57.6213 248.001 65.6889 248.001 76.2728C248.001 86.8568 240.052 95 228.988 95C217.924 95 209.975 86.846 209.975 76.2728ZM238.527 76.2728C238.527 70.2573 234.51 65.9913 228.988 65.9913C223.456 65.9913 219.45 70.2465 219.45 76.2728C219.45 82.364 223.467 86.5544 228.988 86.5544C234.52 86.5544 238.527 82.3532 238.527 76.2728Z" fill="#1B1340"/>
<path d="M278.744 76.2728C278.744 65.6889 286.693 57.6213 297.757 57.6213C308.81 57.6213 316.759 65.6889 316.759 76.2728C316.759 86.8568 308.81 95 297.757 95C286.693 95 278.744 86.846 278.744 76.2728ZM307.285 76.2728C307.285 70.2573 303.268 65.9913 297.746 65.9913C292.225 65.9913 288.208 70.2465 288.208 76.2728C288.208 82.364 292.225 86.5544 297.746 86.5544C303.268 86.5544 307.285 82.3532 307.285 76.2728Z" fill="#1B1340"/>
<path d="M321.754 94.1576V73.8321C321.754 64.3929 327.738 57.6105 338.415 57.6105C349.017 57.6105 355 64.3821 355 73.8321V94.1576H345.461V74.5881C345.461 69.3393 343.109 66.0561 338.415 66.0561C333.721 66.0561 331.368 69.3285 331.368 74.5881V94.1576H321.754Z" fill="#1B1340"/>
<path d="M433.85 58.3531C423.231 58.3531 415.36 66.19 415.36 76.6392C415.36 87.6855 422.934 95 432.068 95C437.117 95 441.127 92.7609 443.354 88.9544L443.948 94.179H452.265V76.7139C452.265 65.369 444.394 58.3531 433.85 58.3531ZM433.85 86.7153C428.578 86.7153 424.642 82.6102 424.642 76.6392C424.642 70.6683 428.652 66.5632 433.85 66.5632C438.973 66.5632 442.983 70.519 442.983 76.6392C442.983 83.5059 438.379 86.7153 433.85 86.7153Z" fill="#6D4AFF"/>
<path d="M470.484 95C477.613 95 483.702 90.8949 483.702 84.6254C483.702 71.1907 465.658 74.3255 465.658 68.877C465.658 67.0857 467.217 65.7422 469.668 65.7422C472.192 65.7422 473.826 67.1603 474.197 69.2502H483.033C482.514 62.3835 477.316 58.2785 469.668 58.3531C461.796 58.3531 456.97 63.0553 456.97 68.877C456.97 82.4609 474.791 78.953 474.791 84.6254C474.791 86.3421 473.158 87.6109 470.484 87.6109C467.885 87.6109 465.509 86.3421 465.064 83.6551H456.079C456.599 90.2978 462.39 95 470.484 95Z" fill="#6D4AFF"/>
<path d="M501.703 95C508.832 95 514.921 90.8949 514.921 84.6254C514.921 71.1907 496.877 74.3255 496.877 68.877C496.877 67.0857 498.436 65.7422 500.887 65.7422C503.411 65.7422 505.045 67.1603 505.416 69.2502H514.253C513.733 62.3835 508.535 58.2785 500.887 58.3531C493.016 58.3531 488.189 63.0553 488.189 68.877C488.189 82.4609 506.01 78.953 506.01 84.6254C506.01 86.3421 504.377 87.6109 501.703 87.6109C499.105 87.6109 496.728 86.3421 496.283 83.6551H487.298C487.818 90.2978 493.61 95 501.703 95Z" fill="#6D4AFF"/>
<path d="M398.401 41H374V94.1807H383.666V80.9422C383.666 79.6562 384.171 78.4134 385.083 77.5056C385.986 76.5979 387.221 76.0791 388.499 76.0791H398.401C403.019 76.0791 407.443 74.2312 410.698 70.9567C413.962 67.6714 415.788 63.2189 415.788 58.5828C415.799 56.2809 415.359 53.9899 414.489 51.8609C413.619 49.732 412.341 47.7867 410.719 46.1549C409.097 44.523 407.186 43.2262 405.07 42.3401C402.965 41.4539 400.699 41 398.401 41ZM406.015 58.4423C406.015 59.5338 405.8 60.6145 405.381 61.6195C404.963 62.6246 404.361 63.5432 403.588 64.3104C402.825 65.0777 401.912 65.6937 400.914 66.1044C399.915 66.5259 398.841 66.7312 397.756 66.7312H383.623V50.1642H397.756C398.841 50.1642 399.915 50.3804 400.924 50.8018C401.923 51.2233 402.836 51.8393 403.599 52.6066C404.361 53.3847 404.973 54.3033 405.381 55.3083C405.79 56.3242 406.004 57.4048 405.994 58.4963L406.015 58.4423Z" fill="#6D4AFF"/>
<path d="M275.865 66.0663H265.489V79.3935C265.489 84.0375 267.154 86.1651 271.923 86.1651C272.374 86.1651 273.513 86.1651 274.952 86.0895V93.9303C272.987 94.4595 271.247 94.7727 269.345 94.7727C261.321 94.7727 255.864 89.9019 255.864 80.6895V66.0663H249.419V58.3768H251.031C251.664 58.3768 252.298 58.2472 252.878 58.0096C253.469 57.7612 253.995 57.4048 254.446 56.9512C254.898 56.4976 255.252 55.9684 255.499 55.3744C255.746 54.7804 255.864 54.154 255.864 53.5168V46.27H265.478V58.3768H275.855V66.0663H275.865Z" fill="#1B1340"/>
<path d="M31.875 28.1871C39.2695 20.7547 42.9667 17.0385 47.23 15.6461C50.9802 14.4213 55.0198 14.4213 58.7699 15.6461C63.0333 17.0385 66.7305 20.7547 74.1249 28.1871L92.6092 46.7665C100.004 54.1989 103.701 57.9151 105.086 62.2004C106.305 65.9698 106.305 70.0302 105.086 73.7997C103.701 78.0849 100.004 81.8011 92.6092 89.2336L74.1249 107.813C66.7305 115.245 63.0333 118.962 58.7699 120.354C55.0198 121.579 50.9802 121.579 47.23 120.354C42.9667 118.962 39.2695 115.245 31.875 107.813L28.3998 103.897C26.2968 101.527 25.2453 100.342 24.4956 98.9944C23.8306 97.7992 23.3428 96.5128 23.0474 95.1759C22.7145 93.6686 22.7144 92.0808 22.7144 88.9053L22.7144 47.0948C22.7144 43.9193 22.7144 42.3315 23.0474 40.8242C23.3427 39.4873 23.8306 38.2009 24.4955 37.0057C25.2452 35.658 26.2967 34.4731 28.3998 32.1033L31.875 28.1871Z" fill="url(#paint0_radial_1_752)"/>
<path d="M31.875 28.1871C39.2695 20.7547 42.9667 17.0385 47.23 15.6461C50.9802 14.4213 55.0198 14.4213 58.7699 15.6461C63.0333 17.0385 66.7305 20.7547 74.1249 28.1871L92.6092 46.7665C100.004 54.1989 103.701 57.9151 105.086 62.2004C106.305 65.9698 106.305 70.0302 105.086 73.7997C103.701 78.0849 100.004 81.8011 92.6092 89.2336L74.1249 107.813C66.7305 115.245 63.0333 118.962 58.7699 120.354C55.0198 121.579 50.9802 121.579 47.23 120.354C42.9667 118.962 39.2695 115.245 31.875 107.813L28.3998 103.897C26.2968 101.527 25.2453 100.342 24.4956 98.9944C23.8306 97.7992 23.3428 96.5128 23.0474 95.1759C22.7145 93.6686 22.7144 92.0808 22.7144 88.9053L22.7144 47.0948C22.7144 43.9193 22.7144 42.3315 23.0474 40.8242C23.3427 39.4873 23.8306 38.2009 24.4955 37.0057C25.2452 35.658 26.2967 34.4731 28.3998 32.1033L31.875 28.1871Z" fill="url(#paint1_linear_1_752)"/>
<path d="M30.5548 29.5131C34.252 25.7968 36.1006 23.9387 38.2323 23.2425C40.1073 22.6302 42.1271 22.6302 44.0022 23.2425C46.1339 23.9387 47.9825 25.7968 51.6797 29.5131L79.4062 57.3821C83.1034 61.0983 84.952 62.9564 85.6446 65.0991C86.2539 66.9838 86.2539 69.014 85.6446 70.8987C84.952 73.0413 83.1034 74.8994 79.4062 78.6156L51.6797 106.485C47.9825 110.201 46.1339 112.059 44.0022 112.755C42.1271 113.368 40.1073 113.368 38.2322 112.755C36.1006 112.059 34.252 110.201 30.5548 106.485L13.3907 89.2324C5.99633 81.8 2.29912 78.0837 0.913871 73.7985C-0.304624 70.0291 -0.304624 65.9687 0.913872 62.1992C2.29912 57.914 5.99633 54.1978 13.3907 46.7653L30.5548 29.5131Z" fill="url(#paint2_radial_1_752)"/>
<defs>
<radialGradient id="paint0_radial_1_752" cx="0" cy="0" r="1" gradientUnits="userSpaceOnUse" gradientTransform="translate(31.9907 123.349) rotate(-58.2736) scale(88.8125 138.568)">
<stop stop-color="#FFD580"/>
<stop offset="0.09375" stop-color="#F6C592"/>
<stop offset="0.205" stop-color="#EBB6A2"/>
<stop offset="0.324466" stop-color="#DFA5AF"/>
<stop offset="0.42875" stop-color="#D397BE"/>
<stop offset="0.53375" stop-color="#C486CB"/>
<stop offset="0.64875" stop-color="#B578D9"/>
<stop offset="0.77125" stop-color="#A166E5"/>
<stop offset="0.89125" stop-color="#8B57F2"/>
<stop offset="1" stop-color="#704CFF"/>
</radialGradient>
<linearGradient id="paint1_linear_1_752" x1="28.34" y1="-6.4281" x2="49.1607" y2="120.015" gradientUnits="userSpaceOnUse">
<stop stop-color="#6D4AFF"/>
<stop offset="0.392009" stop-color="#B39FFB" stop-opacity="0.978022"/>
<stop offset="1" stop-color="#FFE8DB" stop-opacity="0.8"/>
</linearGradient>
<radialGradient id="paint2_radial_1_752" cx="0" cy="0" r="1" gradientUnits="userSpaceOnUse" gradientTransform="translate(24.2183 112.519) rotate(-58.2736) scale(71.4361 111.457)">
<stop stop-color="#FFD580"/>
<stop offset="0.09375" stop-color="#F6C592"/>
<stop offset="0.205" stop-color="#EBB6A2"/>
<stop offset="0.324466" stop-color="#DFA5AF"/>
<stop offset="0.42875" stop-color="#D397BE"/>
<stop offset="0.53375" stop-color="#C486CB"/>
<stop offset="0.64875" stop-color="#B578D9"/>
<stop offset="0.77125" stop-color="#A166E5"/>
<stop offset="0.89125" stop-color="#8B57F2"/>
<stop offset="1" stop-color="#704CFF"/>
</radialGradient>
</defs>
</svg>
