<svg width="671" height="136" viewBox="0 0 671 136" fill="none" xmlns="http://www.w3.org/2000/svg">
<path d="M144 80.3126V94.1584H153.668V80.9174C153.668 79.6322 154.172 78.3902 155.085 77.483C155.988 76.5758 157.223 76.0574 158.501 76.0574H168.416C173.035 76.0574 177.471 74.2105 180.737 70.9165C184.002 67.6332 185.839 63.1727 185.839 58.5287C185.839 53.8846 184.002 49.4241 180.737 46.1301C177.471 42.8468 173.035 41 168.405 41H144V58.3019H153.668V50.1477H167.761C169.952 50.1477 172.047 51.0226 173.593 52.5778C175.14 54.133 176.01 56.239 176.01 58.4423C176.01 60.6455 175.14 62.7515 173.593 64.3068C172.047 65.862 169.952 66.7368 167.761 66.7368H157.524C155.751 66.7368 153.99 67.0824 152.357 67.7736C150.714 68.454 149.231 69.4585 147.974 70.7221C146.718 71.9857 145.729 73.4869 145.042 75.1285C144.354 76.7594 144 78.5306 144 80.3126Z" fill="#1B1340"/>
<path d="M187.343 94.1584V73.0657C187.343 64.458 192.338 57.6106 202.338 57.6106C203.939 57.589 205.539 57.7618 207.108 58.1398V66.8124C205.969 66.7368 204.991 66.7368 204.53 66.7368C199.234 66.7368 196.957 69.1776 196.957 74.1241V94.1584H187.343Z" fill="#1B1340"/>
<path d="M209.987 76.2725C209.987 65.6883 217.935 57.6206 228.999 57.6206C240.063 57.6206 248.012 65.6883 248.012 76.2725C248.012 86.8567 240.063 95 228.999 95C217.935 95 209.987 86.8459 209.987 76.2725ZM238.538 76.2725C238.538 70.2568 234.521 65.9907 228.999 65.9907C223.467 65.9907 219.461 70.246 219.461 76.2725C219.461 82.3638 223.478 86.5543 228.999 86.5543C234.521 86.5543 238.538 82.353 238.538 76.2725Z" fill="#1B1340"/>
<path d="M278.744 76.2725C278.744 65.6883 286.693 57.6206 297.757 57.6206C308.811 57.6206 316.759 65.6883 316.759 76.2725C316.759 86.8567 308.811 95 297.757 95C286.693 95 278.744 86.8459 278.744 76.2725ZM307.296 76.2725C307.296 70.2568 303.279 65.9907 297.757 65.9907C292.236 65.9907 288.219 70.246 288.219 76.2725C288.219 82.3638 292.236 86.5543 297.757 86.5543C303.279 86.5543 307.296 82.353 307.296 76.2725Z" fill="#1B1340"/>
<path d="M321.754 94.1586V73.8327C321.754 64.3933 327.737 57.6108 338.415 57.6108C349.017 57.6108 355 64.3825 355 73.8327V94.1586H345.461V74.5887C345.461 69.3398 343.109 66.0565 338.415 66.0565C333.721 66.0565 331.368 69.329 331.368 74.5887V94.1586H321.754Z" fill="#1B1340"/>
<path d="M275.866 66.0668H265.489V79.3942C265.489 84.0383 267.154 86.1659 271.923 86.1659C272.375 86.1659 273.513 86.1659 274.953 86.0903V93.9312C272.987 94.4604 271.247 94.7737 269.345 94.7737C261.321 94.7737 255.865 89.9028 255.865 80.6902V66.0668H249.419V58.3771H251.02C251.654 58.3771 252.288 58.2475 252.868 58.0099C253.458 57.7615 253.985 57.4051 254.436 56.9515C254.887 56.4979 255.242 55.9686 255.489 55.3746C255.736 54.7806 255.854 54.1542 255.854 53.517V46.2701H265.468V58.3771H275.844V66.0668H275.866Z" fill="#1B1340"/>
<path d="M387.184 91.4536C383.137 89.1638 379.784 85.8047 377.505 81.7543C375.204 77.5312 374 72.8004 374 67.994C374 63.1875 375.204 58.4567 377.505 54.2336C379.784 50.1832 383.126 46.835 387.184 44.5344C391.384 42.1582 396.147 40.9376 400.987 41.0025C404.926 40.97 408.833 41.7585 412.435 43.3247C415.734 44.7396 418.653 46.9106 420.954 49.654C423.232 52.3866 424.817 55.6269 425.587 59.094H415.409C414.258 56.5126 412.381 54.3308 409.994 52.8079C407.335 51.2633 404.319 50.4425 401.237 50.4317C398.155 50.4209 395.127 51.2093 392.458 52.7323C389.897 54.2552 387.792 56.437 386.37 59.0508C384.895 61.8158 384.135 64.8941 384.135 68.0264C384.135 71.1586 384.906 74.2369 386.37 77.0019C387.792 79.6157 389.908 81.7975 392.491 83.3097C395.073 84.8218 398.014 85.5887 401.009 85.5563C404.177 85.6643 407.292 84.8434 409.994 83.1908C412.381 81.6571 414.258 79.4753 415.409 76.8939H425.587C424.817 80.3826 423.221 83.6445 420.932 86.3987C418.642 89.153 415.734 91.3239 412.435 92.7389C408.822 94.2834 404.915 95.0611 400.987 94.9963C396.147 95.0719 391.384 93.8406 387.184 91.4536Z" fill="#6D4AFF"/>
<path d="M456.839 59.6134C459.703 61.1039 462.069 63.3937 463.653 66.202C465.346 69.2478 466.193 72.6933 466.117 76.182V94.1331H457.468L456.85 88.7435C455.721 90.6985 454.072 92.2862 452.075 93.3555C449.937 94.4572 447.55 95.008 445.141 94.9648C442.059 94.9972 439.032 94.1763 436.384 92.5994C433.715 90.9901 431.544 88.6787 430.112 85.9244C428.528 82.8894 427.736 79.5195 427.801 76.0956C427.757 72.7365 428.625 69.4206 430.307 66.5044C431.946 63.6638 434.322 61.3308 437.198 59.7538C440.204 58.1121 443.589 57.2912 447.018 57.356C450.426 57.2804 453.8 58.0581 456.839 59.6134ZM453.67 83.7751C455.547 81.9821 456.481 79.4331 456.481 76.1064C456.6 73.3522 455.634 70.6735 453.779 68.6322C452.921 67.6925 451.869 66.958 450.708 66.4612C449.536 65.9643 448.277 65.7267 447.007 65.7591C445.727 65.7267 444.457 65.9751 443.275 66.4828C442.092 66.9796 441.039 67.7357 440.171 68.6754C438.413 70.7708 437.447 73.417 437.447 76.1388C437.447 78.8606 438.413 81.5069 440.171 83.6023C441.039 84.5311 442.103 85.2656 443.285 85.7624C444.468 86.2485 445.738 86.4861 447.018 86.4429C448.245 86.4645 449.471 86.2377 450.61 85.7732C451.749 85.3088 452.791 84.6283 453.67 83.7751Z" fill="#6D4AFF"/>
<path d="M482.231 94.133H472.486V41.8025H482.231V94.133Z" fill="#6D4AFF"/>
<path d="M523.932 79.4002H496.565C497 81.5819 498.171 83.5477 499.886 84.9734C501.6 86.3019 503.727 86.9932 505.898 86.9392C507.634 87.004 509.37 86.7016 510.987 86.0535C512.267 85.4703 513.32 84.4874 513.993 83.2561H523.021C522.077 86.842 519.831 89.9419 516.706 91.9616C513.559 93.9814 509.891 95.0399 506.147 94.9859C502.718 95.0615 499.322 94.2298 496.327 92.5773C493.516 91.0111 491.216 88.6889 489.697 85.8699C488.102 82.8888 487.299 79.5514 487.353 76.1707C487.299 72.79 488.112 69.4525 489.729 66.4714C491.27 63.6632 493.571 61.341 496.359 59.7641C499.278 58.1331 502.566 57.3015 505.919 57.3663C509.196 57.3231 512.419 58.1763 515.251 59.8181C517.997 61.4382 520.243 63.7712 521.74 66.5687C523.325 69.5173 524.139 72.8116 524.095 76.1599C524.084 77.2292 524.041 78.3201 523.932 79.4002ZM499.81 67.3571C498.15 68.7072 496.978 70.5758 496.49 72.6604H514.883C514.6 70.6082 513.537 68.7396 511.909 67.4327C510.206 66.0394 508.057 65.3049 505.854 65.3698C503.673 65.3049 501.535 66.007 499.81 67.3571Z" fill="#6D4AFF"/>
<path d="M527.633 73.6437C527.546 71.4727 527.893 69.3017 528.664 67.2603C529.434 65.219 530.617 63.3612 532.136 61.7951C535.142 58.8248 539.287 57.3451 544.572 57.3451C549.856 57.3451 553.99 58.8572 556.985 61.8707C558.494 63.4476 559.666 65.3054 560.436 67.3467C561.207 69.3881 561.554 71.5483 561.456 73.7301V94.1978H551.712V74.4106C551.864 72.1748 551.256 69.9606 549.976 68.1244C549.281 67.4116 548.445 66.8391 547.534 66.4503C546.622 66.0614 545.624 65.8562 544.626 65.8562C543.628 65.8562 542.64 66.0614 541.718 66.4503C540.795 66.8391 539.971 67.4116 539.265 68.1244C537.952 69.9606 537.312 72.1964 537.442 74.443V94.1654H527.698L527.633 73.6437Z" fill="#6D4AFF"/>
<path d="M593.272 41.8025H603.017V94.133H594.151L593.468 88.5813C592.404 90.5579 590.776 92.1888 588.802 93.2689C586.577 94.4354 584.103 95.0079 581.596 94.9539C578.764 94.9647 575.975 94.2194 573.534 92.8045C570.908 91.2708 568.77 89.035 567.37 86.3455C565.732 83.2025 564.918 79.6922 565.016 76.1495C564.918 72.6176 565.732 69.1181 567.37 65.9858C568.77 63.2964 570.908 61.0606 573.534 59.5269C575.986 58.1119 578.764 57.3667 581.596 57.3775C584.027 57.3235 586.425 57.8527 588.606 58.922C590.559 59.8617 592.187 61.3738 593.272 63.2532V41.8025ZM590.57 83.7425C591.514 82.7164 592.241 81.5067 592.697 80.1998C593.164 78.8929 593.348 77.4996 593.261 76.1063C593.261 72.8336 592.35 70.317 590.538 68.5672C589.67 67.7031 588.628 67.0227 587.489 66.569C586.349 66.1046 585.134 65.8778 583.897 65.8886C582.66 65.8994 581.455 66.1478 580.316 66.6339C579.187 67.1091 578.156 67.8112 577.299 68.686C576.377 69.6905 575.661 70.8786 575.205 72.1531C574.738 73.4384 574.543 74.7994 574.608 76.1603C574.467 78.9253 575.433 81.6363 577.299 83.6993C578.167 84.6174 579.22 85.341 580.392 85.8163C581.564 86.3023 582.822 86.5292 584.081 86.4967C585.297 86.5075 586.49 86.2591 587.608 85.7947C588.736 85.3086 589.746 84.6174 590.57 83.7425Z" fill="#6D4AFF"/>
<path d="M636.742 59.6134C639.607 61.1039 641.973 63.3937 643.557 66.202C645.25 69.2478 646.096 72.6933 646.02 76.182V94.1331H637.361L636.742 88.7435C635.603 90.6877 633.954 92.2862 631.957 93.3555C629.819 94.4572 627.432 95.008 625.023 94.9648C621.941 94.9972 618.914 94.1763 616.277 92.5994C613.607 90.9901 611.426 88.6787 609.994 85.9244C608.41 82.8894 607.617 79.5195 607.683 76.0956C607.639 72.7365 608.507 69.4206 610.189 66.5044C611.828 63.6746 614.204 61.3416 617.069 59.7646C620.086 58.1229 623.471 57.2912 626.911 57.356C630.329 57.2804 633.704 58.0581 636.742 59.6134ZM633.585 83.7751C635.462 81.9821 636.395 79.4331 636.395 76.1064C636.515 73.363 635.549 70.6735 633.704 68.6322C632.825 67.7141 631.772 66.9904 630.601 66.4936C629.429 65.9968 628.17 65.7375 626.9 65.7375C625.631 65.7375 624.372 65.9968 623.2 66.4936C622.028 66.9904 620.975 67.7141 620.097 68.6322C618.339 70.7276 617.384 73.3738 617.384 76.0956C617.384 78.8174 618.349 81.4637 620.097 83.559C620.965 84.4987 622.017 85.2332 623.189 85.73C624.361 86.2269 625.631 86.4645 626.911 86.4321C628.148 86.4537 629.364 86.2269 630.514 85.7732C631.664 85.3088 632.706 84.6283 633.585 83.7751Z" fill="#6D4AFF"/>
<path d="M650.882 72.8753C650.708 68.771 652.13 64.753 654.853 61.6531C657.49 58.7801 661.256 57.3436 666.139 57.3436C667.777 57.3328 669.405 57.5164 671 57.8836V66.6324C670.23 66.6324 669.351 66.5568 668.385 66.5568C665.715 66.5568 663.762 67.1724 662.525 68.4037C661.863 69.1706 661.353 70.0563 661.028 71.0175C660.713 71.9788 660.594 72.9941 660.67 73.9986V94.1747H650.925L650.882 72.8753Z" fill="#6D4AFF"/>
<path fill-rule="evenodd" clip-rule="evenodd" d="M74.932 36.9884H0V100.128C0 106.135 4.90606 111 10.9632 111H67.0085H48.1219V105.935C48.1219 103.353 49.0494 100.848 50.737 98.8864L70.0483 76.4103V76.4214C70.0371 76.4324 70.0259 76.4546 70.0036 76.4657C72.2387 73.9277 75.5243 72.3317 79.1787 72.3317H83.4478V45.4446C83.4589 40.7787 79.6481 36.9884 74.932 36.9884Z" fill="url(#paint0_radial_10975_186656)"/>
<path fill-rule="evenodd" clip-rule="evenodd" d="M70.0594 76.4217C68.1595 78.5497 67.0085 81.3536 67.0085 84.4125L67.0085 111H48.1219V105.935C48.1219 103.353 49.0494 100.848 50.737 98.8864L70.0483 76.4103L70.0594 76.4217Z" fill="#B8D7FF"/>
<path d="M77.6812 97.1906H81.5367C81.6932 97.8556 82.0843 98.443 82.6431 98.853C83.1907 99.2631 83.8724 99.4737 84.5653 99.4404C86.3087 99.4404 87.4598 98.4873 87.4598 97.0909C87.4598 95.6944 86.264 94.9186 83.8948 94.9186H82.3637V91.771H83.6936C85.9846 91.771 86.9233 90.9287 86.9233 89.6764C86.9233 88.424 85.9063 87.5596 84.4983 87.5596C83.8724 87.5263 83.2466 87.7258 82.7772 88.1359C82.2967 88.5459 82.0061 89.1222 81.9502 89.7429H78.2288C78.3629 87.5485 80.1063 84.401 84.4759 84.401C87.985 84.401 90.4101 86.3848 90.4101 89.1776C90.4101 90.0753 90.1307 90.9509 89.5943 91.6713C89.0579 92.3917 88.3091 92.9347 87.4486 93.2007V93.2561C88.4544 93.4334 89.3596 93.9655 89.9966 94.7524C90.6336 95.5393 90.9689 96.5256 90.9354 97.5453C90.9354 100.571 88.1415 102.566 84.5318 102.566C80.6986 102.588 77.9606 100.427 77.6812 97.1906Z" fill="#8F69FF"/>
<path d="M97.6742 84.7017H100.479V102.313H96.8584V88.8025L93.3716 91.152V87.5944L97.6742 84.7017Z" fill="#8F69FF"/>
<path fill-rule="evenodd" clip-rule="evenodd" d="M10.9632 24H95.0368C101.094 24 106 28.8653 106 34.8723V72.3326H83.4589V45.4454C83.4589 40.7685 79.6369 36.9884 74.932 36.9884H0V34.8723C0 28.8653 4.90606 24 10.9632 24Z" fill="url(#paint1_linear_10975_186656)"/>
<defs>
<radialGradient id="paint0_radial_10975_186656" cx="0" cy="0" r="1" gradientUnits="userSpaceOnUse" gradientTransform="translate(101.946 -48.5808) scale(216.425 183.803)">
<stop offset="0.5563" stop-color="#6D4AFF"/>
<stop offset="0.9944" stop-color="#06B8FF"/>
</radialGradient>
<linearGradient id="paint1_linear_10975_186656" x1="89.0493" y1="83.4689" x2="23.494" y2="-7.69531" gradientUnits="userSpaceOnUse">
<stop stop-color="#BFE8FF"/>
<stop offset="0.3075" stop-color="#BFABFF"/>
<stop offset="1" stop-color="#7341FF"/>
</linearGradient>
</defs>
</svg>
