<svg width="532" height="136" viewBox="0 0 532 136" fill="none" xmlns="http://www.w3.org/2000/svg">
<path d="M404.838 45.7856C408.788 47.9782 412.06 51.2078 414.31 55.1394C416.538 59.1575 417.711 63.6832 417.711 68.2845C417.711 72.8858 416.538 77.4115 414.31 81.4296C412.071 85.3828 408.788 88.634 404.838 90.8374C400.608 93.1705 395.839 94.3478 391.017 94.2506H374V42.3616H391.017C395.839 42.2644 400.608 43.4525 404.838 45.7856ZM391.588 85.0048C394.472 85.0588 397.314 84.3135 399.811 82.8553C402.298 81.3971 404.343 79.2693 405.71 76.731C407.077 74.1279 407.798 71.2332 407.798 68.2953C407.798 65.3574 407.087 62.4626 405.71 59.8595C404.364 57.3753 402.384 55.3014 399.951 53.8541C397.422 52.3527 394.526 51.5966 391.577 51.6398H383.698V84.9399L391.588 85.0048Z" fill="#6D4AFF"/>
<path d="M421.963 73.1449C421.791 69.0728 423.19 65.098 425.87 62.0196C428.496 59.1789 432.188 57.7532 436.967 57.7532C438.571 57.7423 440.175 57.926 441.746 58.2824V66.945C440.993 66.945 440.132 66.8694 439.174 66.8694C436.548 66.8694 434.621 67.4742 433.405 68.6948C432.748 69.4509 432.253 70.3366 431.941 71.2871C431.629 72.2376 431.51 73.2421 431.586 74.2466V94.2396H422.017L421.963 73.1449Z" fill="#6D4AFF"/>
<path d="M445.632 51.0673C445.062 50.538 444.61 49.9007 444.297 49.1879C443.985 48.475 443.834 47.7081 443.845 46.9304C443.834 46.1419 443.996 45.375 444.297 44.6513C444.61 43.9277 445.062 43.2796 445.632 42.7503C446.192 42.1887 446.848 41.7458 447.58 41.4434C448.312 41.141 449.098 40.9897 449.884 41.0005C450.669 40.9897 451.444 41.141 452.166 41.4434C452.887 41.7458 453.543 42.1887 454.092 42.7503C454.663 43.2796 455.115 43.9277 455.427 44.6513C455.739 45.375 455.89 46.1527 455.879 46.9304C455.89 47.7081 455.739 48.475 455.427 49.1879C455.115 49.9007 454.663 50.538 454.092 51.0673C453.543 51.6181 452.887 52.0502 452.166 52.3418C451.444 52.6334 450.669 52.7847 449.894 52.7739C449.109 52.7847 448.323 52.6442 447.602 52.3526C446.859 52.0502 446.192 51.6181 445.632 51.0673ZM454.684 94.1965H445.115V58.4661H454.684V94.1965Z" fill="#6D4AFF"/>
<path d="M470.066 94.1964L456.503 58.466H466.578L472.789 76.72C473.747 79.9172 474.306 81.829 474.457 82.4987H474.608C475.06 80.7813 475.673 78.8479 476.352 76.72L482.562 58.466H492.712L479.15 94.1964H470.066Z" fill="#6D4AFF"/>
<path d="M527.855 79.6035H500.968C501.388 81.7638 502.55 83.7188 504.24 85.123C505.93 86.4407 508.018 87.132 510.149 87.0672C511.861 87.132 513.561 86.8296 515.144 86.1923C516.392 85.5874 517.404 84.6045 518.061 83.3732H526.919C525.993 86.9268 523.776 90.0051 520.708 91.9925C517.619 94.0016 514.013 95.0385 510.332 94.9953C506.963 95.0709 503.626 94.2392 500.677 92.6082C497.922 91.0636 495.661 88.7522 494.154 85.9547C492.594 82.9951 491.797 79.7008 491.851 76.3524C491.797 73.004 492.604 69.688 494.197 66.7501C495.704 63.9634 497.965 61.6627 500.709 60.0966C503.594 58.4872 506.845 57.6879 510.128 57.7635C513.346 57.7203 516.521 58.5628 519.298 60.1938C522 61.7923 524.207 64.1038 525.681 66.8797C527.242 69.796 528.038 73.0688 527.995 76.374C528.017 77.4541 527.963 78.5342 527.855 79.6035ZM504.143 67.6682C502.507 69.0076 501.366 70.8546 500.892 72.9176H518.975C518.696 70.887 517.651 69.0292 516.058 67.7438C514.39 66.3721 512.28 65.6376 510.117 65.6916C507.953 65.6268 505.844 66.3289 504.143 67.6682Z" fill="#6D4AFF"/>
<path d="M144 80.3119V94.1575H153.668V80.9167C153.668 79.6315 154.172 78.3895 155.085 77.4823C155.988 76.5751 157.223 76.0567 158.501 76.0567H168.416C173.035 76.0567 177.471 74.2099 180.737 70.9159C184.002 67.6327 185.839 63.1723 185.839 58.5284C185.839 53.8844 184.002 49.424 180.737 46.13C177.471 42.8468 173.035 41 168.405 41H144V58.3016H153.668V50.1476H167.761C169.952 50.1476 172.047 51.0224 173.593 52.5776C175.14 54.1328 176.01 56.2388 176.01 58.442C176.01 60.6452 175.14 62.7511 173.593 64.3063C172.047 65.8615 169.952 66.7363 167.761 66.7363H157.524C155.751 66.7363 153.99 67.0819 152.357 67.7731C150.714 68.4535 149.231 69.4579 147.974 70.7215C146.718 71.9851 145.729 73.4863 145.042 75.1279C144.354 76.7587 144 78.5299 144 80.3119Z" fill="#1B1340"/>
<path d="M187.332 94.1574V73.0651C187.332 64.4575 192.327 57.6103 202.328 57.6103C203.928 57.5887 205.529 57.7615 207.097 58.1395V66.8119C205.958 66.7363 204.981 66.7363 204.519 66.7363C199.223 66.7363 196.946 69.1771 196.946 74.1235V94.1574H187.332Z" fill="#1B1340"/>
<path d="M209.975 76.2728C209.975 65.6889 217.924 57.6213 228.988 57.6213C240.052 57.6213 248.001 65.6889 248.001 76.2728C248.001 86.8568 240.052 95 228.988 95C217.924 95 209.975 86.846 209.975 76.2728ZM238.527 76.2728C238.527 70.2573 234.51 65.9913 228.988 65.9913C223.456 65.9913 219.45 70.2465 219.45 76.2728C219.45 82.364 223.467 86.5544 228.988 86.5544C234.52 86.5544 238.527 82.3532 238.527 76.2728Z" fill="#1B1340"/>
<path d="M278.744 76.2728C278.744 65.6889 286.693 57.6213 297.757 57.6213C308.81 57.6213 316.759 65.6889 316.759 76.2728C316.759 86.8568 308.81 95 297.757 95C286.693 95 278.744 86.846 278.744 76.2728ZM307.285 76.2728C307.285 70.2573 303.268 65.9913 297.746 65.9913C292.225 65.9913 288.208 70.2465 288.208 76.2728C288.208 82.364 292.225 86.5544 297.746 86.5544C303.268 86.5544 307.285 82.3532 307.285 76.2728Z" fill="#1B1340"/>
<path d="M321.754 94.1576V73.8321C321.754 64.3929 327.738 57.6105 338.415 57.6105C349.017 57.6105 355 64.3821 355 73.8321V94.1576H345.461V74.5881C345.461 69.3393 343.109 66.0561 338.415 66.0561C333.721 66.0561 331.368 69.3285 331.368 74.5881V94.1576H321.754Z" fill="#1B1340"/>
<path d="M275.865 66.0663H265.489V79.3935C265.489 84.0375 267.154 86.1651 271.923 86.1651C272.374 86.1651 273.513 86.1651 274.952 86.0895V93.9303C272.987 94.4595 271.247 94.7727 269.345 94.7727C261.321 94.7727 255.864 89.9019 255.864 80.6895V66.0663H249.419V58.3768H251.031C251.664 58.3768 252.298 58.2472 252.878 58.0096C253.469 57.7612 253.995 57.4048 254.446 56.9512C254.898 56.4976 255.252 55.9684 255.499 55.3744C255.746 54.7804 255.864 54.154 255.864 53.5168V46.27H265.478V58.3768H275.855V66.0663H275.865Z" fill="#1B1340"/>
<path d="M74.8827 46.7999L33.3631 47.0326C31.5754 47.0437 29.8324 46.5006 28.3687 45.4699L19.1173 38.9532C17.676 37.9336 15.9441 37.3906 14.1788 37.3906H0V101.128C0 107.135 4.90503 112 10.9609 112H83.4637V55.256C83.4637 50.568 79.6201 46.7666 74.8827 46.7999Z" fill="url(#paint0_radial_10975_186729)"/>
<path fill-rule="evenodd" clip-rule="evenodd" d="M49.9553 33.7554H95.0391C101.095 33.7554 106 38.6208 106 44.6276V101.117C106 107.124 101.095 111.989 95.0391 111.989H83.4637V55.256C83.4637 50.568 79.6201 46.7666 74.8827 46.7999L33.3631 47.0326C31.5754 47.0437 29.8324 46.5006 28.3687 45.4699L19.1173 38.9532C17.676 37.9336 15.9441 37.3906 14.1788 37.3906H0V35.8722C0 29.8654 4.90503 25 10.9609 25H31.5307C33.6089 25 35.6313 25.6539 37.2961 26.873L44.1788 31.8824C45.8547 33.1015 47.8771 33.7554 49.9553 33.7554Z" fill="url(#paint1_linear_10975_186729)"/>
<defs>
<radialGradient id="paint0_radial_10975_186729" cx="0" cy="0" r="1" gradientUnits="userSpaceOnUse" gradientTransform="translate(114.878 -34.7674) scale(197.794 180.137)">
<stop offset="0.5561" stop-color="#6D4AFF"/>
<stop offset="1" stop-color="#FF50C3"/>
</radialGradient>
<linearGradient id="paint1_linear_10975_186729" x1="-1.3974" y1="-20.4032" x2="129.901" y2="125.087" gradientUnits="userSpaceOnUse">
<stop stop-color="#7341FF"/>
<stop offset="0.3593" stop-color="#B487FF"/>
<stop offset="1" stop-color="#FFC8FF"/>
</linearGradient>
</defs>
</svg>
