<svg width="328" height="88" viewBox="0 0 328 88" fill="none" xmlns="http://www.w3.org/2000/svg">
<g clip-path="url(#clip0_15390_81114)">
<path d="M28.7363 60.4536V46.7854C28.7363 41.209 31.9286 36.7679 38.3139 36.7679C39.3388 36.7526 40.3616 36.8686 41.3582 37.113V42.7359C40.6327 42.6868 40.0052 42.6868 39.7143 42.6868C36.3318 42.6868 34.8773 44.2655 34.8773 47.4729V60.4536H28.7363Z" fill="#1B1340"/>
<path d="M43.1973 48.861C43.1973 42.0019 48.2761 36.7715 55.3388 36.7715C62.4015 36.7715 67.4787 41.9984 67.4787 48.861C67.4787 55.7236 62.3998 60.9963 55.338 60.9963C48.2761 60.9963 43.1973 55.7167 43.1973 48.861ZM61.4333 48.861C61.4333 44.9626 58.8693 42.1995 55.3388 42.1995C51.8083 42.1995 49.2435 44.96 49.2435 48.861C49.2435 52.8087 51.8075 55.5226 55.3388 55.5226C58.8702 55.5226 61.4324 52.8052 61.4324 48.861H61.4333Z" fill="#1B1340"/>
<path d="M85.2778 42.2448H78.6514V50.8802C78.6514 53.8901 79.7152 55.2721 82.7629 55.2721C83.0529 55.2721 83.7777 55.2721 84.6977 55.2229V60.3058C83.4402 60.6509 82.3299 60.8484 81.1181 60.8484C75.9911 60.8484 72.5079 57.6902 72.5079 51.7196V42.2448H68.3965V37.2611H69.4214C69.827 37.2611 70.2286 37.1795 70.6033 37.0211C70.978 36.8626 71.3184 36.6304 71.6051 36.3376C71.8918 36.0449 72.119 35.6973 72.274 35.3149C72.4289 34.9325 72.5084 34.5227 72.5079 34.1089V29.415H78.6514V37.2611H85.2778V42.2448Z" fill="#1B1340"/>
<path d="M87.1152 48.861C87.1152 42.0019 92.1941 36.7715 99.2568 36.7715C106.32 36.7715 111.398 41.9984 111.398 48.861C111.398 55.7236 106.319 60.9998 99.2568 60.9998C92.1949 60.9998 87.1152 55.7167 87.1152 48.861ZM105.35 48.861C105.35 44.9626 102.786 42.1995 99.256 42.1995C95.7255 42.1995 93.1606 44.96 93.1606 48.861C93.1606 52.8087 95.7246 55.5226 99.256 55.5226C102.787 55.5226 105.35 52.8052 105.35 48.861Z" fill="#1B1340"/>
<path d="M114.59 60.4532V47.2784C114.59 41.1595 118.411 36.7676 125.231 36.7676C132.003 36.7676 135.824 41.1595 135.824 47.2784V60.4532H129.73V47.7719C129.73 44.3678 128.23 42.2456 125.231 42.2456C122.233 42.2456 120.733 44.3678 120.733 47.7719V60.4532H114.59Z" fill="#1B1340"/>
<path d="M1 51.4809V60.4527H7.1731V51.8691C7.1731 51.034 7.49829 50.2331 8.07713 49.6426C8.65597 49.0521 9.44105 48.7203 10.2597 48.7203H16.5892C19.5419 48.7194 22.3735 47.5222 24.4611 45.392C26.5488 43.2617 27.7217 40.3729 27.7219 37.3606V37.3606C27.7219 34.3479 26.5489 31.4585 24.4608 29.3281C22.3728 27.1976 19.5407 26.0005 16.5875 26H1V37.2148H7.1731V31.9275H16.1715C17.5686 31.9275 18.9086 32.4935 19.8967 33.5012C20.8848 34.5089 21.4401 35.8757 21.4406 37.3011V37.3011C21.4406 38.7267 20.8854 40.0939 19.8973 41.102C18.9091 42.1101 17.5689 42.6764 16.1715 42.6764H9.62966C8.49617 42.6759 7.37368 42.9032 6.32638 43.3455C5.27908 43.7878 4.32749 44.4363 3.52603 45.254C2.72457 46.0717 2.08895 47.0425 1.65552 48.111C1.22209 49.1794 0.999335 50.3246 1 51.4809V51.4809Z" fill="#1B1340"/>
<path d="M155.771 60.6571V37.3184H169.352V40.27H158.923V47.6149H168.882V50.5665H158.923V60.6571H155.771Z" fill="#1B1340"/>
<path d="M184.191 58.5978C182.648 60.1995 180.726 61.0003 178.423 61.0003C176.12 61.0003 174.187 60.1995 172.622 58.5978C171.079 56.9733 170.308 54.9826 170.308 52.6258C170.308 50.2691 171.079 48.2899 172.622 46.6882C174.187 45.0636 176.12 44.2513 178.423 44.2513C180.726 44.2513 182.648 45.0636 184.191 46.6882C185.756 48.2899 186.538 50.2691 186.538 52.6258C186.538 54.9826 185.756 56.9733 184.191 58.5978ZM174.801 48.6788C173.863 49.7085 173.393 51.0242 173.393 52.6258C173.393 54.2275 173.863 55.5432 174.801 56.5728C175.763 57.6025 176.97 58.1173 178.423 58.1173C179.876 58.1173 181.072 57.6025 182.011 56.5728C182.973 55.5432 183.453 54.2275 183.453 52.6258C183.453 51.0242 182.973 49.7085 182.011 48.6788C181.072 47.6492 179.876 47.1344 178.423 47.1344C176.97 47.1344 175.763 47.6492 174.801 48.6788Z" fill="#1B1340"/>
<path d="M189.555 50.4979C189.555 48.553 190.091 47.0314 191.164 45.9331C192.237 44.8119 193.646 44.2513 195.389 44.2513C195.948 44.2513 196.518 44.3314 197.1 44.4916V47.3746C196.898 47.3517 196.496 47.3403 195.892 47.3403C194.842 47.3403 194.037 47.6378 193.478 48.2327C192.919 48.8276 192.64 49.8343 192.64 51.253V60.6571H189.555V50.4979Z" fill="#1B1340"/>
<path d="M208.2 60.6571V37.3184H215.309C217.88 37.3184 219.78 37.8904 221.01 39.0344C222.262 40.1785 222.888 41.7459 222.888 43.7365C222.888 45.0407 222.508 46.1276 221.748 46.9971C221.01 47.8666 220.138 48.3928 219.132 48.5759V48.6445C220.54 48.8276 221.703 49.3767 222.619 50.292C223.558 51.2072 224.028 52.4199 224.028 53.9301C224.028 56.0122 223.346 57.6597 221.982 58.8724C220.619 60.0622 218.64 60.6571 216.047 60.6571H208.2ZM211.352 57.7055H215.812C219.143 57.7055 220.809 56.447 220.809 53.9301C220.809 52.6487 220.339 51.6992 219.4 51.0814C218.484 50.4636 217.042 50.1547 215.074 50.1547H211.352V57.7055ZM211.352 47.203H215.074C216.684 47.203 217.846 46.9284 218.562 46.3793C219.3 45.8301 219.668 44.9492 219.668 43.7365C219.668 41.4255 218.137 40.27 215.074 40.27H211.352V47.203Z" fill="#1B1340"/>
<path d="M238.652 59.0783C237.445 60.3597 235.824 61.0003 233.79 61.0003C231.755 61.0003 230.134 60.3597 228.927 59.0783C227.72 57.797 227.116 56.1381 227.116 54.1017V44.5946H230.202V53.8614C230.202 55.1885 230.503 56.2182 231.107 56.9504C231.711 57.6826 232.605 58.0487 233.79 58.0487C234.975 58.0487 235.869 57.6826 236.472 56.9504C237.076 56.2182 237.378 55.1885 237.378 53.8614V44.5946H240.463V54.1017C240.463 56.1381 239.859 57.797 238.652 59.0783Z" fill="#1B1340"/>
<path d="M249.939 61.0003C248.195 61.0003 246.753 60.5198 245.613 59.5588C244.495 58.5978 243.892 57.305 243.802 55.6805H246.887C246.977 56.4813 247.301 57.122 247.86 57.6025C248.441 58.083 249.134 58.3232 249.939 58.3232C250.766 58.3232 251.403 58.1402 251.85 57.7741C252.297 57.408 252.521 56.9618 252.521 56.4355C252.521 55.8178 252.23 55.3258 251.649 54.9597C251.068 54.5707 250.364 54.2618 249.536 54.033C248.732 53.8042 247.916 53.5296 247.088 53.2093C246.284 52.889 245.591 52.3741 245.009 51.6648C244.428 50.9555 244.137 50.0517 244.137 48.9534C244.137 47.695 244.618 46.5967 245.579 45.6585C246.541 44.7204 247.871 44.2513 249.57 44.2513C251.18 44.2513 252.499 44.6975 253.527 45.5899C254.555 46.4823 255.148 47.7293 255.304 49.331H252.219C251.973 47.7293 251.09 46.9284 249.57 46.9284C248.899 46.9284 248.34 47.1115 247.893 47.4776C247.446 47.8437 247.223 48.3356 247.223 48.9534C247.223 49.5712 247.513 50.0632 248.094 50.4293C248.676 50.7953 249.369 51.0928 250.174 51.3216C251.001 51.5504 251.817 51.825 252.622 52.1453C253.449 52.4428 254.153 52.9576 254.734 53.6898C255.315 54.3991 255.606 55.3144 255.606 56.4355C255.606 57.7627 255.069 58.861 253.996 59.7304C252.923 60.577 251.571 61.0003 249.939 61.0003Z" fill="#1B1340"/>
<path d="M258.588 60.6571V44.5946H261.673V60.6571H258.588ZM258.689 40.9221C258.308 40.5332 258.118 40.0527 258.118 39.4806C258.118 38.9086 258.308 38.4281 258.689 38.0391C259.091 37.6273 259.572 37.4213 260.13 37.4213C260.689 37.4213 261.159 37.6273 261.539 38.0391C261.941 38.4281 262.143 38.9086 262.143 39.4806C262.143 40.0527 261.941 40.5332 261.539 40.9221C261.159 41.3111 260.689 41.5056 260.13 41.5056C259.572 41.5056 259.091 41.3111 258.689 40.9221Z" fill="#1B1340"/>
<path d="M265.726 51.15C265.726 49.1136 266.341 47.4547 267.571 46.1734C268.8 44.892 270.454 44.2513 272.534 44.2513C274.613 44.2513 276.267 44.892 277.497 46.1734C278.726 47.4547 279.341 49.1136 279.341 51.15V60.6571H276.256V51.3903C276.256 50.0403 275.943 48.9992 275.317 48.267C274.691 47.5119 273.763 47.1344 272.534 47.1344C271.304 47.1344 270.376 47.5119 269.75 48.267C269.124 48.9992 268.811 50.0403 268.811 51.3903V60.6571H265.726V51.15Z" fill="#1B1340"/>
<path d="M290.285 61.0003C287.983 61.0003 286.082 60.2224 284.585 58.6665C283.109 57.1105 282.371 55.097 282.371 52.6258C282.371 50.1547 283.109 48.1411 284.585 46.5852C286.06 45.0293 287.96 44.2513 290.285 44.2513C292.364 44.2513 294.13 45.0636 295.584 46.6882C297.059 48.2899 297.797 50.2691 297.797 52.6258C297.797 53.1292 297.775 53.5411 297.73 53.8614H285.557C285.781 55.1656 286.317 56.2067 287.167 56.9847C288.039 57.7398 289.078 58.1173 290.285 58.1173C292.23 58.1173 293.549 57.3622 294.242 55.8521H297.394C296.925 57.408 296.042 58.655 294.745 59.5931C293.471 60.5313 291.984 61.0003 290.285 61.0003ZM285.591 51.253H294.611C294.499 50.1318 294.041 49.1708 293.236 48.3699C292.431 47.5462 291.448 47.1344 290.285 47.1344C289.078 47.1344 288.05 47.5119 287.2 48.267C286.373 48.9992 285.836 49.9945 285.591 51.253Z" fill="#1B1340"/>
<path d="M306.265 61.0003C304.521 61.0003 303.079 60.5198 301.939 59.5588C300.822 58.5978 300.218 57.305 300.129 55.6805H303.214C303.303 56.4813 303.627 57.122 304.186 57.6025C304.767 58.083 305.46 58.3232 306.265 58.3232C307.092 58.3232 307.73 58.1402 308.177 57.7741C308.624 57.408 308.847 56.9618 308.847 56.4355C308.847 55.8178 308.557 55.3258 307.975 54.9597C307.394 54.5707 306.69 54.2618 305.863 54.033C305.058 53.8042 304.242 53.5296 303.415 53.2093C302.61 52.889 301.917 52.3741 301.336 51.6648C300.754 50.9555 300.464 50.0517 300.464 48.9534C300.464 47.695 300.945 46.5967 301.906 45.6585C302.867 44.7204 304.197 44.2513 305.896 44.2513C307.506 44.2513 308.825 44.6975 309.853 45.5899C310.882 46.4823 311.474 47.7293 311.631 49.331H308.546C308.3 47.7293 307.417 46.9284 305.896 46.9284C305.226 46.9284 304.667 47.1115 304.22 47.4776C303.773 47.8437 303.549 48.3356 303.549 48.9534C303.549 49.5712 303.84 50.0632 304.421 50.4293C305.002 50.7953 305.695 51.0928 306.5 51.3216C307.327 51.5504 308.143 51.825 308.948 52.1453C309.775 52.4428 310.479 52.9576 311.061 53.6898C311.642 54.3991 311.932 55.3144 311.932 56.4355C311.932 57.7627 311.396 58.861 310.323 59.7304C309.25 60.577 307.897 61.0003 306.265 61.0003Z" fill="#1B1340"/>
<path d="M320.347 61.0003C318.603 61.0003 317.161 60.5198 316.021 59.5588C314.903 58.5978 314.3 57.305 314.21 55.6805H317.295C317.385 56.4813 317.709 57.122 318.268 57.6025C318.849 58.083 319.542 58.3232 320.347 58.3232C321.174 58.3232 321.811 58.1402 322.258 57.7741C322.705 57.408 322.929 56.9618 322.929 56.4355C322.929 55.8178 322.638 55.3258 322.057 54.9597C321.476 54.5707 320.772 54.2618 319.944 54.033C319.14 53.8042 318.324 53.5296 317.496 53.2093C316.692 52.889 315.999 52.3741 315.417 51.6648C314.836 50.9555 314.545 50.0517 314.545 48.9534C314.545 47.695 315.026 46.5967 315.987 45.6585C316.949 44.7204 318.279 44.2513 319.978 44.2513C321.588 44.2513 322.907 44.6975 323.935 45.5899C324.963 46.4823 325.556 47.7293 325.712 49.331H322.627C322.381 47.7293 321.498 46.9284 319.978 46.9284C319.307 46.9284 318.748 47.1115 318.301 47.4776C317.854 47.8437 317.631 48.3356 317.631 48.9534C317.631 49.5712 317.921 50.0632 318.502 50.4293C319.084 50.7953 319.777 51.0928 320.582 51.3216C321.409 51.5504 322.225 51.825 323.03 52.1453C323.857 52.4428 324.561 52.9576 325.142 53.6898C325.723 54.3991 326.014 55.3144 326.014 56.4355C326.014 57.7627 325.477 58.861 324.404 59.7304C323.331 60.577 321.979 61.0003 320.347 61.0003Z" fill="#1B1340"/>
</g>
<defs>
<clipPath id="clip0_15390_81114">
<rect width="325" height="35" fill="white" transform="translate(1 26)"/>
</clipPath>
</defs>
</svg>
